<svg width="27" height="29" viewBox="0 0 27 29" fill="none" xmlns="http://www.w3.org/2000/svg">
<path id="Vector" d="M15.7106 25.7542C15.4859 26.1331 15.1635 26.4476 14.7755 26.6663C14.3876 26.8849 13.9477 27 13.5 27C13.0523 27 12.6125 26.8849 12.2245 26.6663C11.8366 26.4476 11.5141 26.1331 11.2895 25.7542M21.1667 9.50133C21.1667 7.51185 20.3589 5.60386 18.9212 4.19709C17.4834 2.79032 15.5333 2 13.5 2C11.4667 2 9.51663 2.79032 8.07885 4.19709C6.64107 5.60386 5.83333 7.51185 5.83333 9.50133C5.83333 18.2529 2 20.7533 2 20.7533H25C25 20.7533 21.1667 18.2529 21.1667 9.50133Z" stroke="#05494F" stroke-width="3" stroke-linecap="round" stroke-linejoin="round"/>
</svg>
